<?xml version="1.0" encoding="UTF-8" standalone="no"?>
<svg
   version="1.0"
   viewBox="0 0 40 32"
   enable-background="new 0 0 48 48"
   id="svg2"
   sodipodi:docname="AddDirIconCC.svg"
   width="40"
   height="32"
   inkscape:version="1.3 (0e150ed, 2023-07-21)"
   xmlns:inkscape="http://www.inkscape.org/namespaces/inkscape"
   xmlns:sodipodi="http://sodipodi.sourceforge.net/DTD/sodipodi-0.dtd"
   xmlns="http://www.w3.org/2000/svg"
   xmlns:svg="http://www.w3.org/2000/svg">
  <defs
     id="defs2" />
  <sodipodi:namedview
     id="namedview2"
     pagecolor="#ffffff"
     bordercolor="#999999"
     borderopacity="1"
     inkscape:showpageshadow="0"
     inkscape:pageopacity="0"
     inkscape:pagecheckerboard="false"
     inkscape:deskcolor="#d1d1d1"
     showguides="true"
     inkscape:zoom="7.3174831"
     inkscape:cx="22.343748"
     inkscape:cy="28.288415"
     inkscape:window-width="1312"
     inkscape:window-height="431"
     inkscape:window-x="0"
     inkscape:window-y="25"
     inkscape:window-maximized="0"
     inkscape:current-layer="svg2" />
  <g
     id="g2">
    <path
       fill="#ffa000"
       d="M 36,4 H 18 L 14,0 H 4 C 1.8,0 0,1.8 0,4 v 8 H 40 V 8 C 40,5.8 38.2,4 36,4 Z"
       id="path1" />
    <path
       fill="#ffca28"
       d="M 36,4 H 4 C 1.8,4 0,5.8 0,8 v 20 c 0,2.2 1.8,4 4,4 h 32 c 2.2,0 4,-1.8 4,-4 V 8 C 40,5.8 38.2,4 36,4 Z"
       id="path2" />
    <g
       id="g1"
       transform="matrix(1.2551732,0,0,1.2551732,-13.198903,-11.037453)">
      <rect
         style="fill:#34b233;fill-opacity:1;stroke-width:0.695898;stroke-miterlimit:10;stroke-opacity:0"
         id="rect1"
         width="3"
         height="15"
         x="33.688404"
         y="19.288059" />
      <rect
         style="fill:#34b233;fill-opacity:1;stroke-width:0.6959;stroke-miterlimit:10;stroke-opacity:0"
         id="rect1-5"
         width="15"
         height="3"
         x="27.383715"
         y="25.288059" />
    </g>
  </g>
</svg>
