<?xml version="1.0" encoding="UTF-8" standalone="no"?>
<svg
   version="1"
   viewBox="0 0 42.18029 32"
   enable-background="new 0 0 48 48"
   id="svg2"
   sodipodi:docname="OpenDirIconCC.svg"
   width="42.18029"
   height="32"
   inkscape:version="1.3 (0e150ed, 2023-07-21)"
   xmlns:inkscape="http://www.inkscape.org/namespaces/inkscape"
   xmlns:sodipodi="http://sodipodi.sourceforge.net/DTD/sodipodi-0.dtd"
   xmlns="http://www.w3.org/2000/svg"
   xmlns:svg="http://www.w3.org/2000/svg">
  <defs
     id="defs2" />
  <sodipodi:namedview
     id="namedview2"
     pagecolor="#ffffff"
     bordercolor="#999999"
     borderopacity="1"
     inkscape:showpageshadow="0"
     inkscape:pageopacity="0"
     inkscape:pagecheckerboard="0"
     inkscape:deskcolor="#d1d1d1"
     inkscape:zoom="4.9166667"
     inkscape:cx="19.830508"
     inkscape:cy="16.067797"
     inkscape:window-width="1312"
     inkscape:window-height="431"
     inkscape:window-x="0"
     inkscape:window-y="25"
     inkscape:window-maximized="0"
     inkscape:current-layer="svg2" />
  <path
     fill="#ffa000"
     d="M 34,4 H 18 L 14,0 H 4 C 1.8,0 0,1.8 0,4 v 24 c 0,2.2 1.8,4 4,4 h 31 c 1.7,0 3,-1.3 3,-3 V 8 C 38,5.8 36.2,4 34,4 Z"
     id="path1" />
  <path
     fill="#ffca28"
     d="M 38.2,10 H 11.3 C 9.4,10 7.7,11.4 7.4,13.3 L 4,32 h 31.7 c 1.9,0 3.6,-1.4 3.9,-3.3 l 2.5,-14 C 42.6,12.3 40.7,10 38.2,10 Z"
     id="path2" />
</svg>
