<?xml version="1.0" encoding="UTF-8" standalone="no"?>
<svg
   version="1"
   viewBox="0 0 40.888889 42"
   enable-background="new 0 0 48 48"
   id="svg3"
   sodipodi:docname="DashboardCC.svg"
   width="40.888889"
   height="42"
   inkscape:version="1.3 (0e150ed, 2023-07-21)"
   xmlns:inkscape="http://www.inkscape.org/namespaces/inkscape"
   xmlns:sodipodi="http://sodipodi.sourceforge.net/DTD/sodipodi-0.dtd"
   xmlns="http://www.w3.org/2000/svg"
   xmlns:svg="http://www.w3.org/2000/svg">
  <defs
     id="defs3" />
  <sodipodi:namedview
     id="namedview3"
     pagecolor="#ffffff"
     bordercolor="#999999"
     borderopacity="1"
     inkscape:showpageshadow="0"
     inkscape:pageopacity="0"
     inkscape:pagecheckerboard="0"
     inkscape:deskcolor="#d1d1d1"
     inkscape:zoom="4.9166667"
     inkscape:cx="20.542373"
     inkscape:cy="20.949153"
     inkscape:window-width="1312"
     inkscape:window-height="431"
     inkscape:window-x="0"
     inkscape:window-y="25"
     inkscape:window-maximized="0"
     inkscape:current-layer="svg3" />
  <path
     fill="#ef6c00"
     d="m 33.844444,21.6 -11.6,-2.2 -3.9,-11.2 -3.8,1.3 3.9,11.1 -7.8,9 3,2.6 7.8,-9 11.6,2.2 z"
     id="path1" />
  <g
     fill="#ff9800"
     id="g3"
     transform="translate(-3.5555556,-3)">
    <path
       d="m 24,19 c -2.8,0 -5,2.2 -5,5 0,2.8 2.2,5 5,5 2.8,0 5,-2.2 5,-5 0,-2.8 -2.2,-5 -5,-5 z m 0,7 c -1.1,0 -2,-0.9 -2,-2 0,-1.1 0.9,-2 2,-2 1.1,0 2,0.9 2,2 0,1.1 -0.9,2 -2,2 z"
       id="path2" />
    <path
       d="M 40.7,27 C 40.9,26 41,25 41,24 41,23 40.9,22 40.7,21 L 44,18.6 c 0.4,-0.3 0.6,-0.9 0.3,-1.4 L 40,9.8 C 39.7,9.3 39.2,9.1 38.7,9.4 L 35,11 C 33.5,9.7 31.7,8.7 29.8,8 L 29.4,3.9 C 29.3,3.4 28.9,3 28.4,3 h -8.6 c -0.5,0 -1,0.4 -1,0.9 L 18.2,8 C 16.3,8.7 14.5,9.7 13,11 L 9.3,9.3 C 8.8,9.1 8.2,9.3 8,9.8 L 3.7,17.2 C 3.4,17.7 3.6,18.3 4,18.6 L 7.3,21 C 7.1,22 7,23 7,24 c 0,1 0.1,2 0.3,3 L 4,29.4 C 3.6,29.7 3.4,30.3 3.7,30.8 L 8,38.2 c 0.3,0.5 0.8,0.7 1.3,0.4 L 13,37 c 1.5,1.3 3.3,2.3 5.2,3 l 0.4,4.1 c 0.1,0.5 0.5,0.9 1,0.9 h 8.6 c 0.5,0 1,-0.4 1,-0.9 L 29.6,40 c 1.9,-0.7 3.7,-1.7 5.2,-3 l 3.7,1.7 c 0.5,0.2 1.1,0 1.3,-0.4 l 4.3,-7.4 c 0.3,-0.5 0.1,-1.1 -0.3,-1.4 z M 24,35 c -6.1,0 -11,-4.9 -11,-11 0,-6.1 4.9,-11 11,-11 6.1,0 11,4.9 11,11 0,6.1 -4.9,11 -11,11 z"
       id="path3" />
  </g>
</svg>
