<?xml version="1.0" encoding="UTF-8" standalone="no"?>
<svg
   version="1"
   viewBox="0 0 40 34"
   enable-background="new 0 0 48 48"
   id="svg3"
   sodipodi:docname="UploadFileCC.svg"
   width="40"
   height="34"
   inkscape:version="1.3 (0e150ed, 2023-07-21)"
   xmlns:inkscape="http://www.inkscape.org/namespaces/inkscape"
   xmlns:sodipodi="http://sodipodi.sourceforge.net/DTD/sodipodi-0.dtd"
   xmlns="http://www.w3.org/2000/svg"
   xmlns:svg="http://www.w3.org/2000/svg">
  <defs
     id="defs3" />
  <sodipodi:namedview
     id="namedview3"
     pagecolor="#ffffff"
     bordercolor="#999999"
     borderopacity="1"
     inkscape:showpageshadow="0"
     inkscape:pageopacity="0"
     inkscape:pagecheckerboard="0"
     inkscape:deskcolor="#d1d1d1"
     inkscape:zoom="6.9532165"
     inkscape:cx="34.228763"
     inkscape:cy="11.505467"
     inkscape:window-width="1440"
     inkscape:window-height="847"
     inkscape:window-x="1920"
     inkscape:window-y="325"
     inkscape:window-maximized="0"
     inkscape:current-layer="svg3" />
  <path
     fill="#8cbcd6"
     d="M 36,34 H 4 C 1.8,34 0,32.2 0,30 V 4 C 0,1.8 1.8,0 4,0 h 32 c 2.2,0 4,1.8 4,4 v 26 c 0,2.2 -1.8,4 -4,4 z"
     id="path1" />
  <circle
     fill="#b3ddf5"
     cx="31"
     cy="9"
     r="3"
     id="circle1" />
  <polygon
     fill="#9ac9e3"
     points="9,32 31,32 20,16 "
     id="polygon1"
     transform="translate(-4,-7)" />
  <polygon
     fill="#b3ddf5"
     points="23,32 39,32 31,22 "
     id="polygon2"
     transform="translate(-4,-7)" />
  <g
     id="g1"
     transform="matrix(1.2857143,0,0,1.2857143,-11.428573,-9.7142874)">
    <circle
       fill="#4caf50"
       cx="33"
       cy="27"
       r="7"
       id="circle1-9"
       style="stroke-width:0.333333" />
    <g
       fill="#ffffff"
       id="g2"
       transform="matrix(0.33333333,0,0,0.33333333,25.000001,19)">
      <rect
         x="21"
         y="14"
         width="6"
         height="20"
         id="rect1" />
      <rect
         x="14"
         y="21"
         width="20"
         height="6"
         id="rect2" />
    </g>
  </g>
</svg>
